<svg width="147" height="22" viewBox="0 0 147 22" fill="none" xmlns="http://www.w3.org/2000/svg">
<path d="M0 1.52355C0 1.05633 0.143951 0.690674 0.431853 0.426593C0.741902 0.142198 1.15161 0 1.66097 0C2.17034 0 2.56897 0.142198 2.85688 0.426593C3.16692 0.690674 3.32195 1.05633 3.32195 1.52355C3.32195 1.99077 3.16692 2.36657 2.85688 2.65097C2.56897 2.93536 2.17034 3.07756 1.66097 3.07756C1.15161 3.07756 0.741902 2.93536 0.431853 2.65097C0.143951 2.36657 0 1.99077 0 1.52355ZM2.82366 6.39889V21.6343H0.265756V6.39889H2.82366Z" fill="#CDEA68"/>
<path d="M6.30262 6.39889H8.76086V3.38227H11.2855V6.39889H15.1722V8.50139H11.2855V17.338C11.2855 18.2927 11.5181 18.9224 11.9832 19.2271C12.4704 19.5319 13.0462 19.6842 13.7106 19.6842C14.0649 19.6842 14.4303 19.6639 14.8068 19.6233C15.1833 19.5623 15.5487 19.5115 15.9031 19.4709V21.8172C15.2165 21.9391 14.5411 22 13.8767 22C13.1015 22 12.3929 21.8883 11.7506 21.6648C11.1084 21.4617 10.5547 21.1265 10.0896 20.6593C9.62457 20.1717 9.25916 19.542 8.9934 18.7701C8.74979 17.9982 8.62798 17.0536 8.62798 15.9363V11.5789L9.29237 8.50139H6.30262V6.39889Z" fill="#CDEA68"/>
<path d="M20.8984 6.39889C20.8984 5.28163 21.0202 4.33703 21.2638 3.5651C21.5296 2.79317 21.895 2.17359 22.3601 1.70637C22.8252 1.21884 23.3788 0.8735 24.0211 0.670361C24.6633 0.446907 25.372 0.335179 26.1471 0.335179C26.8115 0.335179 27.487 0.396122 28.1735 0.518006V2.86427C27.8192 2.82364 27.4537 2.78301 27.0773 2.74238C26.7008 2.68144 26.3354 2.65097 25.981 2.65097C25.3166 2.65097 24.7408 2.80332 24.2536 3.10803C23.7885 3.41274 23.556 4.04247 23.556 4.99723V6.39889H27.4427V8.50139H23.556V21.6343H20.8984V11.9141L21.5628 8.50139H18.5731V6.39889H20.8984Z" fill="#212121"/>
<path d="M39.7588 6.39889V8.53186H37.7324C37.1566 8.53186 36.614 8.6639 36.1047 8.92798C35.6174 9.19206 35.1856 9.56787 34.8091 10.0554C34.4548 10.5226 34.1669 11.0813 33.9454 11.7313C33.7461 12.361 33.6464 13.0619 33.6464 13.8338V21.6343H30.9889V6.39889H33.6464V7.16067L32.9156 10.5125H33.6464C34.0229 9.09049 34.5766 8.05448 35.3074 7.40443C36.0604 6.73407 37.0348 6.39889 38.2307 6.39889H39.7588Z" fill="#212121"/>
<path d="M44.1523 12.7673L43.953 13.133L44.7835 14.0166C44.7835 15.9058 45.16 17.3481 45.913 18.3435C46.6659 19.3186 47.9837 19.8061 49.8661 19.8061C50.4419 19.8061 51.0398 19.6944 51.6599 19.4709C52.3022 19.2271 53.0109 18.7091 53.786 17.9169L55.4137 19.5928C54.8822 20.1006 54.3507 20.5069 53.8192 20.8116C53.3098 21.1163 52.8005 21.3601 52.2911 21.5429C51.8039 21.7054 51.3167 21.807 50.8295 21.8476C50.3644 21.9086 49.9104 21.9391 49.4675 21.9391C48.2716 21.9391 47.2196 21.7461 46.3116 21.3601C45.4036 20.9741 44.6285 20.4358 43.9862 19.7452C43.3661 19.0342 42.89 18.2013 42.5578 17.2465C42.2477 16.2715 42.0927 15.1948 42.0927 14.0166C42.0927 12.8384 42.2588 11.7719 42.591 10.8172C42.9454 9.84211 43.4437 9.00923 44.0859 8.31856C44.7503 7.60757 45.5476 7.0591 46.4777 6.67313C47.4078 6.28717 48.4709 6.09418 49.6668 6.09418C50.7298 6.09418 51.6821 6.27701 52.5237 6.64266C53.3874 6.988 54.096 7.49585 54.6497 8.16621C55.2034 8.81625 55.5909 9.59834 55.8124 10.5125C56.056 11.4266 56.1003 12.4423 55.9453 13.5596H46.7435L44.1523 12.7673ZM53.2877 11.6704C53.2877 11.3047 53.2434 10.9086 53.1548 10.482C53.0662 10.0554 52.9001 9.66944 52.6565 9.3241C52.4129 8.97876 52.0586 8.69437 51.5935 8.47092C51.1506 8.22715 50.5637 8.10526 49.8329 8.10526C49.0578 8.10526 48.3934 8.18652 47.8397 8.34903C47.3082 8.51154 46.8542 8.74515 46.4777 9.04986C46.1012 9.35457 45.7912 9.73038 45.5476 10.1773C45.3261 10.6242 45.1489 11.1219 45.016 11.6704H53.2877Z" fill="#212121"/>
<path d="M61.0865 12.7673L60.8872 13.133L61.7177 14.0166C61.7177 15.9058 62.0941 17.3481 62.8471 18.3435C63.6001 19.3186 64.9178 19.8061 66.8002 19.8061C67.376 19.8061 67.974 19.6944 68.5941 19.4709C69.2363 19.2271 69.945 18.7091 70.7201 17.9169L72.3479 19.5928C71.8164 20.1006 71.2849 20.5069 70.7534 20.8116C70.244 21.1163 69.7346 21.3601 69.2253 21.5429C68.7381 21.7054 68.2508 21.807 67.7636 21.8476C67.2985 21.9086 66.8445 21.9391 66.4016 21.9391C65.2057 21.9391 64.1538 21.7461 63.2458 21.3601C62.3378 20.9741 61.5626 20.4358 60.9204 19.7452C60.3003 19.0342 59.8241 18.2013 59.492 17.2465C59.1819 16.2715 59.0269 15.1948 59.0269 14.0166C59.0269 12.8384 59.193 11.7719 59.5252 10.8172C59.8795 9.84211 60.3778 9.00923 61.0201 8.31856C61.6844 7.60757 62.4817 7.0591 63.4119 6.67313C64.342 6.28717 65.405 6.09418 66.6009 6.09418C67.664 6.09418 68.6162 6.27701 69.4578 6.64266C70.3215 6.988 71.0302 7.49585 71.5839 8.16621C72.1375 8.81625 72.5251 9.59834 72.7465 10.5125C72.9901 11.4266 73.0344 12.4423 72.8794 13.5596H63.6776L61.0865 12.7673ZM70.2218 11.6704C70.2218 11.3047 70.1776 10.9086 70.089 10.482C70.0004 10.0554 69.8343 9.66944 69.5907 9.3241C69.3471 8.97876 68.9927 8.69437 68.5277 8.47092C68.0847 8.22715 67.4979 8.10526 66.767 8.10526C65.9919 8.10526 65.3275 8.18652 64.7739 8.34903C64.2423 8.51154 63.7883 8.74515 63.4119 9.04986C63.0354 9.35457 62.7253 9.73038 62.4817 10.1773C62.2602 10.6242 62.0831 11.1219 61.9502 11.6704H70.2218Z" fill="#212121"/>
<path d="M79.5155 0.304709V21.6343H76.9576V0.609418L79.5155 0.304709Z" fill="#212121"/>
<path d="M84.2631 7.37396C84.9939 6.96768 85.8354 6.65282 86.7877 6.42936C87.74 6.20591 88.5816 6.09418 89.3124 6.09418C90.309 6.09418 91.1727 6.19575 91.9035 6.39889C92.6565 6.60203 93.2877 6.87627 93.7971 7.22161C94.3064 7.54663 94.7272 7.92244 95.0594 8.34903C95.3916 8.77562 95.6463 9.21237 95.8234 9.65928C96.2442 10.6953 96.3992 11.8837 96.2885 13.2244V21.6343H93.631V20.6593L94.4614 17.4903H93.6642C93.5756 18.2622 93.3652 18.9326 93.033 19.5014C92.723 20.0499 92.3243 20.5069 91.8371 20.8726C91.3499 21.2382 90.7962 21.5125 90.1761 21.6953C89.5782 21.8781 88.947 21.9695 88.2826 21.9695C87.5296 21.9695 86.832 21.8781 86.1898 21.6953C85.5475 21.5125 84.9828 21.2382 84.4956 20.8726C84.0305 20.4866 83.6651 20.0194 83.3994 19.4709C83.1336 18.9021 83.0007 18.2419 83.0007 17.4903C83.0007 16.6371 83.1557 15.8957 83.4658 15.2659C83.7758 14.6362 84.1191 14.1182 84.4956 13.7119C84.9385 13.2447 85.4368 12.8486 85.9905 12.5235H93.631C93.631 10.9797 93.2766 9.88273 92.5679 9.23269C91.8592 8.56233 90.8737 8.22715 89.6114 8.22715C88.6812 8.22715 87.884 8.32872 87.2196 8.53186C86.5552 8.735 85.9462 8.94829 85.3925 9.17175L84.2631 7.37396ZM93.631 14.3823H87.0535C86.4113 14.9917 85.9905 15.6519 85.7911 16.3629C85.614 17.0536 85.6251 17.6934 85.8244 18.2826C86.0237 18.8513 86.4002 19.3186 86.9538 19.6842C87.5075 20.0296 88.2162 20.1616 89.0799 20.0803C90.2536 19.9788 91.1506 19.6842 91.7707 19.1967C92.3908 18.6888 92.8448 18.1607 93.1327 17.6122C93.4427 16.9825 93.6088 16.2715 93.631 15.4792V14.3823Z" fill="#212121"/>
<path d="M114.853 21.6343H112.195V12.6759C112.195 12.0665 112.129 11.4977 111.996 10.9695C111.885 10.4414 111.675 9.9843 111.365 9.59834C111.077 9.19206 110.678 8.87719 110.169 8.65374C109.659 8.43029 109.028 8.31856 108.275 8.31856C107.367 8.31856 106.603 8.46076 105.983 8.74515C105.363 9.02955 104.865 9.42567 104.488 9.93352C104.134 10.4211 103.879 11 103.724 11.6704C103.569 12.3407 103.492 13.0619 103.492 13.8338V21.6343H100.834V6.39889H103.492V7.16067L102.761 10.5125H103.492C103.868 9.04986 104.466 7.95291 105.286 7.22161C106.127 6.46999 107.356 6.09418 108.973 6.09418C109.903 6.09418 110.734 6.25669 111.464 6.58172C112.195 6.90674 112.804 7.3638 113.291 7.95291C113.801 8.5217 114.188 9.20222 114.454 9.99446C114.72 10.7867 114.853 11.6399 114.853 12.554V21.6343Z" fill="#212121"/>
<path d="M130.395 20.8726C129.842 21.1773 129.144 21.4312 128.303 21.6343C127.483 21.8375 126.686 21.9391 125.911 21.9391C124.582 21.9391 123.419 21.7461 122.423 21.3601C121.448 20.9741 120.629 20.4358 119.964 19.7452C119.3 19.0342 118.802 18.2013 118.47 17.2465C118.159 16.2715 118.004 15.1948 118.004 14.0166C118.004 12.8384 118.159 11.7719 118.47 10.8172C118.802 9.84211 119.3 9.00923 119.964 8.31856C120.629 7.60757 121.448 7.0591 122.423 6.67313C123.419 6.28717 124.582 6.09418 125.911 6.09418C126.686 6.09418 127.494 6.19575 128.336 6.39889C129.177 6.60203 129.864 6.85596 130.395 7.16067L129.067 8.89751C128.912 8.79594 128.69 8.70453 128.402 8.62327C128.136 8.5217 127.849 8.44044 127.538 8.3795C127.228 8.31856 126.929 8.26778 126.642 8.22715C126.354 8.18652 126.11 8.16621 125.911 8.16621C124.914 8.16621 124.084 8.31856 123.419 8.62327C122.755 8.92798 122.223 9.34441 121.825 9.87258C121.426 10.4007 121.138 11.0203 120.961 11.7313C120.806 12.4423 120.728 13.2041 120.728 14.0166C120.728 14.8292 120.806 15.591 120.961 16.3019C121.138 17.0129 121.426 17.6325 121.825 18.1607C122.223 18.6888 122.755 19.1053 123.419 19.41C124.084 19.7147 124.914 19.867 125.911 19.867C126.331 19.867 126.852 19.7959 127.472 19.6537C128.114 19.5115 128.646 19.3084 129.067 19.0443L130.395 20.8726Z" fill="#212121"/>
<path d="M135.117 12.7673L134.917 13.133L135.748 14.0166C135.748 15.9058 136.124 17.3481 136.877 18.3435C137.63 19.3186 138.948 19.8061 140.83 19.8061C141.406 19.8061 142.004 19.6944 142.624 19.4709C143.266 19.2271 143.975 18.7091 144.75 17.9169L146.378 19.5928C145.847 20.1006 145.315 20.5069 144.784 20.8116C144.274 21.1163 143.765 21.3601 143.255 21.5429C142.768 21.7054 142.281 21.807 141.794 21.8476C141.329 21.9086 140.875 21.9391 140.432 21.9391C139.236 21.9391 138.184 21.7461 137.276 21.3601C136.368 20.9741 135.593 20.4358 134.951 19.7452C134.33 19.0342 133.854 18.2013 133.522 17.2465C133.212 16.2715 133.057 15.1948 133.057 14.0166C133.057 12.8384 133.223 11.7719 133.555 10.8172C133.91 9.84211 134.408 9.00923 135.05 8.31856C135.715 7.60757 136.512 7.0591 137.442 6.67313C138.372 6.28717 139.435 6.09418 140.631 6.09418C141.694 6.09418 142.646 6.27701 143.488 6.64266C144.352 6.988 145.06 7.49585 145.614 8.16621C146.168 8.81625 146.555 9.59834 146.777 10.5125C147.02 11.4266 147.065 12.4423 146.91 13.5596H137.708L135.117 12.7673ZM144.252 11.6704C144.252 11.3047 144.208 10.9086 144.119 10.482C144.031 10.0554 143.864 9.66944 143.621 9.3241C143.377 8.97876 143.023 8.69437 142.558 8.47092C142.115 8.22715 141.528 8.10526 140.797 8.10526C140.022 8.10526 139.358 8.18652 138.804 8.34903C138.272 8.51154 137.819 8.74515 137.442 9.04986C137.066 9.35457 136.755 9.73038 136.512 10.1773C136.29 10.6242 136.113 11.1219 135.98 11.6704H144.252Z" fill="#212121"/>
</svg>
