<svg width="19" height="18" viewBox="0 0 19 18" fill="none" xmlns="http://www.w3.org/2000/svg">
<path d="M9.95 0C10.1887 0 10.4176 0.0948213 10.5864 0.263604C10.7552 0.432387 10.85 0.661305 10.85 0.9V7.65H17.6C17.8387 7.65 18.0676 7.74482 18.2364 7.9136C18.4052 8.08239 18.5 8.31131 18.5 8.55V9.45C18.5 9.68869 18.4052 9.91761 18.2364 10.0864C18.0676 10.2552 17.8387 10.35 17.6 10.35H10.85V17.1C10.85 17.3387 10.7552 17.5676 10.5864 17.7364C10.4176 17.9052 10.1887 18 9.95 18H9.05C8.81131 18 8.58239 17.9052 8.4136 17.7364C8.24482 17.5676 8.15 17.3387 8.15 17.1V10.35H1.4C1.16131 10.35 0.932387 10.2552 0.763604 10.0864C0.594821 9.91761 0.5 9.68869 0.5 9.45V8.55C0.5 8.31131 0.594821 8.08239 0.763604 7.9136C0.932387 7.74482 1.16131 7.65 1.4 7.65H8.15V0.9C8.15 0.661305 8.24482 0.432387 8.4136 0.263604C8.58239 0.0948213 8.81131 0 9.05 0H9.95Z" fill="#1A1A1A"/>
</svg>
